<mxfile host="app.diagrams.net" agent="Mozilla/5.0 (Windows NT 10.0; Win64; x64) AppleWebKit/537.36 (KHTML, like Gecko) Chrome/118.0.0.0 Safari/537.36" version="24.8.6">
  <diagram id="C5RBs43oDa-KdzZeNtuy" name="Page-1">
    <mxGraphModel dx="1434" dy="782" grid="1" gridSize="10" guides="1" tooltips="1" connect="1" arrows="1" fold="1" page="1" pageScale="1" pageWidth="827" pageHeight="1169" math="0" shadow="0">
      <root>
        <mxCell id="WIyWlLk6GJQsqaUBKTNV-0" />
        <mxCell id="WIyWlLk6GJQsqaUBKTNV-1" parent="WIyWlLk6GJQsqaUBKTNV-0" />
        <mxCell id="EEmhuNAyFI3SDtmoT-Xv-0" value="&lt;div&gt;如果格式正確&lt;/div&gt;" style="rounded=0;html=1;jettySize=auto;orthogonalLoop=1;fontSize=11;endArrow=block;endFill=0;endSize=8;strokeWidth=1;shadow=0;labelBackgroundColor=none;edgeStyle=orthogonalEdgeStyle;" edge="1" parent="WIyWlLk6GJQsqaUBKTNV-1" source="EEmhuNAyFI3SDtmoT-Xv-2" target="EEmhuNAyFI3SDtmoT-Xv-4">
          <mxGeometry x="-0.2" y="40" relative="1" as="geometry">
            <mxPoint as="offset" />
          </mxGeometry>
        </mxCell>
        <mxCell id="EEmhuNAyFI3SDtmoT-Xv-1" value="&lt;div&gt;如果格式不正確&lt;/div&gt;" style="edgeStyle=orthogonalEdgeStyle;rounded=0;html=1;jettySize=auto;orthogonalLoop=1;fontSize=11;endArrow=block;endFill=0;endSize=8;strokeWidth=1;shadow=0;labelBackgroundColor=none;" edge="1" parent="WIyWlLk6GJQsqaUBKTNV-1" source="EEmhuNAyFI3SDtmoT-Xv-2" target="EEmhuNAyFI3SDtmoT-Xv-6">
          <mxGeometry y="10" relative="1" as="geometry">
            <mxPoint as="offset" />
          </mxGeometry>
        </mxCell>
        <mxCell id="EEmhuNAyFI3SDtmoT-Xv-2" value="&lt;div&gt;檢查車牌號碼與引擎號碼格式是否正確&lt;/div&gt;" style="rhombus;whiteSpace=wrap;html=1;shadow=0;fontFamily=Helvetica;fontSize=12;align=center;strokeWidth=1;spacing=6;spacingTop=-4;" vertex="1" parent="WIyWlLk6GJQsqaUBKTNV-1">
          <mxGeometry x="165" y="462" width="120" height="120" as="geometry" />
        </mxCell>
        <mxCell id="EEmhuNAyFI3SDtmoT-Xv-3" value="" style="edgeStyle=orthogonalEdgeStyle;rounded=0;orthogonalLoop=1;jettySize=auto;html=1;" edge="1" parent="WIyWlLk6GJQsqaUBKTNV-1" source="EEmhuNAyFI3SDtmoT-Xv-4" target="EEmhuNAyFI3SDtmoT-Xv-17">
          <mxGeometry relative="1" as="geometry" />
        </mxCell>
        <mxCell id="EEmhuNAyFI3SDtmoT-Xv-4" value="&lt;div&gt;更新車輛資訊&lt;/div&gt;" style="rounded=1;whiteSpace=wrap;html=1;fontSize=12;glass=0;strokeWidth=1;shadow=0;" vertex="1" parent="WIyWlLk6GJQsqaUBKTNV-1">
          <mxGeometry x="165" y="657" width="120" height="40" as="geometry" />
        </mxCell>
        <mxCell id="EEmhuNAyFI3SDtmoT-Xv-5" style="edgeStyle=orthogonalEdgeStyle;rounded=0;orthogonalLoop=1;jettySize=auto;html=1;exitX=0.5;exitY=0;exitDx=0;exitDy=0;entryX=1;entryY=0.5;entryDx=0;entryDy=0;" edge="1" parent="WIyWlLk6GJQsqaUBKTNV-1" source="EEmhuNAyFI3SDtmoT-Xv-6" target="EEmhuNAyFI3SDtmoT-Xv-16">
          <mxGeometry relative="1" as="geometry" />
        </mxCell>
        <mxCell id="EEmhuNAyFI3SDtmoT-Xv-6" value="&lt;div&gt;提示「車輛資訊格式錯誤」&lt;/div&gt;" style="rounded=1;whiteSpace=wrap;html=1;fontSize=12;glass=0;strokeWidth=1;shadow=0;" vertex="1" parent="WIyWlLk6GJQsqaUBKTNV-1">
          <mxGeometry x="419" y="502" width="176" height="40" as="geometry" />
        </mxCell>
        <mxCell id="EEmhuNAyFI3SDtmoT-Xv-7" value="&lt;div&gt;車輛資訊更新頁面&lt;/div&gt;" style="text;html=1;align=center;verticalAlign=middle;resizable=0;points=[];autosize=1;strokeColor=none;fillColor=none;" vertex="1" parent="WIyWlLk6GJQsqaUBKTNV-1">
          <mxGeometry x="165" y="110" width="120" height="30" as="geometry" />
        </mxCell>
        <mxCell id="EEmhuNAyFI3SDtmoT-Xv-8" value="" style="rounded=0;html=1;jettySize=auto;orthogonalLoop=1;fontSize=11;endArrow=block;endFill=0;endSize=8;strokeWidth=1;shadow=0;labelBackgroundColor=none;edgeStyle=orthogonalEdgeStyle;" edge="1" parent="WIyWlLk6GJQsqaUBKTNV-1" source="EEmhuNAyFI3SDtmoT-Xv-9" target="EEmhuNAyFI3SDtmoT-Xv-12">
          <mxGeometry relative="1" as="geometry" />
        </mxCell>
        <mxCell id="EEmhuNAyFI3SDtmoT-Xv-9" value="&lt;div&gt;管理員登入系統&lt;/div&gt;" style="rounded=1;whiteSpace=wrap;html=1;fontSize=12;glass=0;strokeWidth=1;shadow=0;" vertex="1" parent="WIyWlLk6GJQsqaUBKTNV-1">
          <mxGeometry x="165" y="152" width="120" height="40" as="geometry" />
        </mxCell>
        <mxCell id="EEmhuNAyFI3SDtmoT-Xv-10" value="&lt;div&gt;如果已登入&lt;/div&gt;" style="rounded=0;html=1;jettySize=auto;orthogonalLoop=1;fontSize=11;endArrow=block;endFill=0;endSize=8;strokeWidth=1;shadow=0;labelBackgroundColor=none;edgeStyle=orthogonalEdgeStyle;entryX=0.5;entryY=0;entryDx=0;entryDy=0;" edge="1" parent="WIyWlLk6GJQsqaUBKTNV-1" source="EEmhuNAyFI3SDtmoT-Xv-12" target="EEmhuNAyFI3SDtmoT-Xv-16">
          <mxGeometry x="-0.1111" y="40" relative="1" as="geometry">
            <mxPoint as="offset" />
            <mxPoint x="225" y="362" as="targetPoint" />
          </mxGeometry>
        </mxCell>
        <mxCell id="EEmhuNAyFI3SDtmoT-Xv-11" value="&lt;div&gt;如果未登入&lt;/div&gt;" style="edgeStyle=orthogonalEdgeStyle;rounded=0;html=1;jettySize=auto;orthogonalLoop=1;fontSize=11;endArrow=block;endFill=0;endSize=8;strokeWidth=1;shadow=0;labelBackgroundColor=none;" edge="1" parent="WIyWlLk6GJQsqaUBKTNV-1" source="EEmhuNAyFI3SDtmoT-Xv-12" target="EEmhuNAyFI3SDtmoT-Xv-14">
          <mxGeometry y="10" relative="1" as="geometry">
            <mxPoint as="offset" />
          </mxGeometry>
        </mxCell>
        <mxCell id="EEmhuNAyFI3SDtmoT-Xv-12" value="&lt;div&gt;檢查管理員身份&lt;/div&gt;" style="rhombus;whiteSpace=wrap;html=1;shadow=0;fontFamily=Helvetica;fontSize=12;align=center;strokeWidth=1;spacing=6;spacingTop=-4;" vertex="1" parent="WIyWlLk6GJQsqaUBKTNV-1">
          <mxGeometry x="175" y="242" width="100" height="80" as="geometry" />
        </mxCell>
        <mxCell id="EEmhuNAyFI3SDtmoT-Xv-13" style="edgeStyle=orthogonalEdgeStyle;rounded=0;orthogonalLoop=1;jettySize=auto;html=1;exitX=0.5;exitY=0;exitDx=0;exitDy=0;entryX=1;entryY=0.5;entryDx=0;entryDy=0;" edge="1" parent="WIyWlLk6GJQsqaUBKTNV-1" source="EEmhuNAyFI3SDtmoT-Xv-14" target="EEmhuNAyFI3SDtmoT-Xv-9">
          <mxGeometry relative="1" as="geometry" />
        </mxCell>
        <mxCell id="EEmhuNAyFI3SDtmoT-Xv-14" value="&lt;div&gt;提示「請先登入」並跳轉到登入頁面&lt;/div&gt;" style="rounded=1;whiteSpace=wrap;html=1;fontSize=12;glass=0;strokeWidth=1;shadow=0;" vertex="1" parent="WIyWlLk6GJQsqaUBKTNV-1">
          <mxGeometry x="405" y="262" width="210" height="40" as="geometry" />
        </mxCell>
        <mxCell id="EEmhuNAyFI3SDtmoT-Xv-15" value="" style="edgeStyle=orthogonalEdgeStyle;rounded=0;orthogonalLoop=1;jettySize=auto;html=1;" edge="1" parent="WIyWlLk6GJQsqaUBKTNV-1" source="EEmhuNAyFI3SDtmoT-Xv-16" target="EEmhuNAyFI3SDtmoT-Xv-2">
          <mxGeometry relative="1" as="geometry" />
        </mxCell>
        <mxCell id="EEmhuNAyFI3SDtmoT-Xv-16" value="&lt;div&gt;使用者輸入新的車輛資訊&lt;/div&gt;" style="rounded=1;whiteSpace=wrap;html=1;" vertex="1" parent="WIyWlLk6GJQsqaUBKTNV-1">
          <mxGeometry x="155" y="382" width="140" height="40" as="geometry" />
        </mxCell>
        <mxCell id="EEmhuNAyFI3SDtmoT-Xv-17" value="&lt;div&gt;顯示「車輛資訊更新成功」&lt;/div&gt;" style="rounded=1;whiteSpace=wrap;html=1;glass=0;strokeWidth=1;shadow=0;" vertex="1" parent="WIyWlLk6GJQsqaUBKTNV-1">
          <mxGeometry x="150" y="767" width="150" height="45" as="geometry" />
        </mxCell>
      </root>
    </mxGraphModel>
  </diagram>
</mxfile>
